<?xml version="1.0" encoding="UTF-8"?>
<svg xmlns="http://www.w3.org/2000/svg" xmlns:xlink="http://www.w3.org/1999/xlink" width="30px" height="27px" viewBox="0 0 30 27" version="1.1">
<g id="surface1">
<path style=" stroke:none;fill-rule:nonzero;fill:rgb(0%,0%,0%);fill-opacity:1;" d="M 0 1.265625 C 0 0.5625 0.558594 0 1.25 0 L 3.621094 0 C 4.765625 0 5.78125 0.675781 6.253906 1.6875 L 27.660156 1.6875 C 29.03125 1.6875 30.03125 3.007812 29.671875 4.34375 L 27.535156 12.375 C 27.09375 14.03125 25.609375 15.1875 23.917969 15.1875 L 8.890625 15.1875 L 9.171875 16.691406 C 9.285156 17.285156 9.800781 17.71875 10.402344 17.71875 L 25.417969 17.71875 C 26.109375 17.71875 26.667969 18.28125 26.667969 18.984375 C 26.667969 19.6875 26.109375 20.25 25.417969 20.25 L 10.402344 20.25 C 8.597656 20.25 7.050781 18.953125 6.71875 17.164062 L 4.03125 2.875 C 3.996094 2.671875 3.824219 2.53125 3.621094 2.53125 L 1.25 2.53125 C 0.558594 2.53125 0 1.96875 0 1.265625 Z M 6.667969 24.46875 C 6.667969 23.070312 7.785156 21.9375 9.167969 21.9375 C 10.546875 21.9375 11.667969 23.070312 11.667969 24.46875 C 11.667969 25.867188 10.546875 27 9.167969 27 C 7.785156 27 6.667969 25.867188 6.667969 24.46875 Z M 24.167969 21.9375 C 25.546875 21.9375 26.667969 23.070312 26.667969 24.46875 C 26.667969 25.867188 25.546875 27 24.167969 27 C 22.785156 27 21.667969 25.867188 21.667969 24.46875 C 21.667969 23.070312 22.785156 21.9375 24.167969 21.9375 Z M 24.167969 21.9375 "/>
</g>
</svg>
