<?xml version="1.0" encoding="UTF-8"?>
<svg xmlns="http://www.w3.org/2000/svg" xmlns:xlink="http://www.w3.org/1999/xlink" width="60px" height="48px" viewBox="0 0 60 48" version="1.1">
<g id="surface1">
<path style=" stroke:none;fill-rule:nonzero;fill:rgb(0%,0%,0%);fill-opacity:1;" d="M 22.921875 13.632812 C 20.453125 17.960938 16.777344 24.398438 14.753906 27.949219 C 12.71875 31.5 11.0625 34.476562 11.0625 34.539062 C 11.0625 34.648438 15.175781 34.6875 24.59375 34.6875 C 33.53125 34.6875 38.117188 34.648438 38.117188 34.554688 C 38.117188 34.476562 37.707031 33.738281 37.207031 32.910156 L 36.304688 31.410156 L 26.441406 31.335938 L 16.582031 31.273438 L 22.832031 20.355469 C 26.269531 14.355469 29.144531 9.285156 29.222656 9.089844 C 29.34375 8.789062 29.265625 8.585938 28.476562 7.257812 C 27.992188 6.429688 27.558594 5.757812 27.503906 5.757812 C 27.457031 5.773438 25.394531 9.308594 22.921875 13.632812 Z M 22.921875 13.632812 "/>
<path style=" stroke:none;fill-rule:nonzero;fill:rgb(0%,0%,0%);fill-opacity:1;" d="M 27.003906 15.226562 C 24.128906 20.371094 21.082031 25.792969 20.230469 27.292969 C 19.375 28.792969 18.679688 30.066406 18.679688 30.132812 C 18.679688 30.210938 19.429688 30.269531 20.496094 30.269531 L 22.292969 30.269531 L 27.28125 21.363281 C 30.011719 16.460938 32.285156 12.457031 32.339844 12.457031 C 32.386719 12.464844 34.9375 16.941406 42.386719 30.1875 L 44.875 34.621094 L 46.769531 34.664062 L 48.644531 34.699219 L 48.328125 34.125 C 43.894531 26.261719 40.359375 19.996094 38.511719 16.742188 C 37.234375 14.492188 35.34375 11.128906 34.296875 9.285156 C 33.253906 7.417969 32.363281 5.894531 32.324219 5.894531 C 32.273438 5.894531 29.878906 10.101562 27.003906 15.226562 Z M 27.003906 15.226562 "/>
<path style=" stroke:none;fill-rule:nonzero;fill:rgb(0%,0%,0%);fill-opacity:1;" d="M 31.285156 16.664062 L 30.445312 18.308594 L 34.109375 24.726562 C 36.128906 28.246094 38.378906 32.195312 39.113281 33.480469 L 40.453125 35.824219 L 28.015625 35.867188 L 15.59375 35.894531 L 14.78125 37.417969 C 14.324219 38.25 13.953125 38.988281 13.953125 39.054688 C 13.953125 39.121094 20.875 39.175781 29.976562 39.175781 C 38.78125 39.175781 45.996094 39.121094 45.996094 39.054688 C 45.996094 39 45.617188 38.304688 45.152344 37.511719 C 44.050781 35.625 36.382812 22.191406 34.152344 18.226562 C 33.175781 16.5 32.324219 15.066406 32.257812 15.039062 C 32.195312 15.023438 31.761719 15.75 31.285156 16.664062 Z M 31.285156 16.664062 "/>
</g>
</svg>
