<svg width="62" height="35" version="1.0" viewBox="0 0 28 31" xmlns="http://www.w3.org/2000/svg">
<g transform="translate(0 900) scale(.1 -.1)">
<path d="m5294 8148c3-145 8-688 11-1208s8-1226 11-1570 9-1189 14-1879c6-690 11-1255 13-1257 1-2 189 107 417 241l415 243v559c0 769-14 2880-22 3317-6 336-5 359 11 353 9-4 272-152 584-329s644-365 737-418c210-119 1724-979 2083-1182l263-150 247 145c518 303 582 342 582 348 0 4-75 50-167 102-93 52-298 169-458 259-776 441-2991 1698-3812 2164-508 288-925 524-929 524-3 0-3-118 0-262z"></path>
<path d="m6242 6306 3-487 985-559c542-308 1368-777 1837-1042 469-266 852-485 853-488 0-3-202-123-448-267s-1063-624-1817-1067l-1370-804-3-487c-2-461-1-487 15-480 16 5 811 472 3338 1955 330 194 796 468 1035 608 836 490 925 543 933 551 5 5-146 97-335 204-395 224-1830 1039-3702 2102-715 405-1306 739-1313 742-11 4-13-81-11-481z"></path>
<path d="m4383 6129c4-354 9-1044 12-1534 3-489 7-1036 10-1215s8-876 11-1550c4-674 8-1227 10-1229 4-4-75-50 1959 1144 935 549 1970 1157 2300 1350 984 578 1059 623 1062 631 1 5-187 116-418 246l-420 238-1672-982c-920-540-1739-1021-1822-1069-82-49-151-87-153-85-4 4-17 1509-27 3181-7 937-9 1031-24 1046-16 16-782 452-816 466-17 6-18-27-12-638z"></path>
</g>
</svg>