<?xml version="1.0" standalone="no"?>
<!DOCTYPE svg PUBLIC "-//W3C//DTD SVG 20010904//EN"
 "http://www.w3.org/TR/2001/REC-SVG-20010904/DTD/svg10.dtd">
<svg version="1.0" xmlns="http://www.w3.org/2000/svg"
 width="474.000000pt" height="474.000000pt" viewBox="0 0 474.000000 474.000000"
 preserveAspectRatio="xMidYMid meet">

<g transform="translate(0.000000,474.000000) scale(0.100000,-0.100000)"
fill="#000000" stroke="none">
<path d="M2090 4675 c-692 -93 -1273 -453 -1655 -1025 -266 -398 -397 -862
-382 -1353 11 -359 87 -660 247 -979 416 -827 1309 -1336 2224 -1268 256 19
467 65 683 150 1177 458 1770 1744 1358 2941 -53 152 -160 366 -257 511 -360
537 -905 894 -1538 1005 -182 32 -512 40 -680 18z m589 -221 c445 -65 850
-267 1169 -582 178 -176 297 -338 406 -552 146 -287 213 -556 223 -890 15
-495 -126 -939 -423 -1337 -72 -96 -244 -275 -342 -355 -239 -196 -537 -346
-832 -418 -198 -48 -259 -55 -510 -54 -255 0 -373 14 -566 69 -682 195 -1222
713 -1438 1382 -220 681 -82 1422 367 1978 83 103 259 274 365 354 307 233
694 384 1078 420 128 12 367 5 503 -15z"/>
<path d="M2203 3724 c-151 -30 -284 -100 -405 -213 -130 -122 -210 -259 -249
-428 -28 -120 -23 -306 10 -421 52 -179 182 -360 329 -457 23 -15 42 -31 42
-34 0 -4 -21 -17 -47 -30 -186 -90 -374 -289 -469 -498 -38 -81 -94 -285 -94
-339 0 -40 31 -80 74 -94 72 -23 132 35 151 146 11 63 45 164 81 235 103 207
296 364 530 431 65 18 104 22 214 22 160 0 233 -16 365 -79 245 -117 398 -314
465 -598 26 -110 44 -140 94 -157 68 -22 146 42 133 109 -37 191 -86 324 -161
445 -100 158 -206 261 -367 357 l-88 52 37 25 c150 101 267 254 326 430 185
542 -228 1116 -798 1111 -55 0 -133 -7 -173 -15z m366 -230 c187 -63 328 -197
395 -375 131 -351 -71 -740 -434 -834 -80 -21 -235 -21 -315 0 -107 27 -203
83 -286 165 -258 255 -249 665 19 911 75 68 194 131 282 148 30 6 64 13 75 15
47 11 190 -5 264 -30z"/>
</g>
</svg>
