<?xml version="1.0" encoding="UTF-8"?>
<svg xmlns="http://www.w3.org/2000/svg" xmlns:xlink="http://www.w3.org/1999/xlink" width="28px" height="28px" viewBox="0 0 28 28" version="1.1">
<g id="surface1">
<path style=" stroke:none;fill-rule:nonzero;fill:rgb(0%,0%,0%);fill-opacity:1;" d="M 22.75 11.375 C 22.75 13.886719 21.933594 16.203125 20.5625 18.085938 L 27.484375 25.015625 C 28.167969 25.699219 28.167969 26.808594 27.484375 27.492188 C 26.800781 28.175781 25.691406 28.175781 25.007812 27.492188 L 18.085938 20.5625 C 16.203125 21.941406 13.886719 22.75 11.375 22.75 C 5.089844 22.75 0 17.660156 0 11.375 C 0 5.089844 5.089844 0 11.375 0 C 17.660156 0 22.75 5.089844 22.75 11.375 Z M 11.375 19.25 C 15.722656 19.25 19.25 15.722656 19.25 11.375 C 19.25 7.027344 15.722656 3.5 11.375 3.5 C 7.027344 3.5 3.5 7.027344 3.5 11.375 C 3.5 15.722656 7.027344 19.25 11.375 19.25 Z M 11.375 19.25 "/>
</g>
</svg>
